<svg width="26" height="20" viewBox="0 0 26 20" fill="none" xmlns="http://www.w3.org/2000/svg">
	<path fill-rule="evenodd" clip-rule="evenodd" d="M25.198 9.09103C25.4026 9.29595 25.5176 9.57373 25.5176 9.86335C25.5176 10.153 25.4026 10.4307 25.198 10.6357L16.4548 19.3788C16.3547 19.4862 16.2341 19.5723 16.1 19.6321C15.9659 19.6918 15.8212 19.7239 15.6745 19.7265C15.5277 19.7291 15.382 19.7021 15.2459 19.6472C15.1098 19.5922 14.9862 19.5104 14.8824 19.4066C14.7786 19.3028 14.6968 19.1792 14.6418 19.0431C14.5869 18.907 14.5599 18.7613 14.5625 18.6145C14.5651 18.4678 14.5972 18.3231 14.6569 18.189C14.7166 18.0549 14.8028 17.9343 14.9101 17.8342L21.7881 10.9562L1.11048 10.9562C0.820621 10.9562 0.542639 10.8411 0.337681 10.6361C0.132723 10.4312 0.0175781 10.1532 0.0175781 9.86335C0.0175781 9.57349 0.132723 9.29551 0.337681 9.09055C0.542639 8.88559 0.820621 8.77045 1.11048 8.77045L21.7881 8.77045L14.9101 1.89247C14.8028 1.79242 14.7166 1.67176 14.6569 1.5377C14.5972 1.40364 14.5651 1.25892 14.5625 1.11218C14.5599 0.965434 14.5869 0.819672 14.6418 0.683587C14.6968 0.547502 14.7786 0.423882 14.8824 0.320102C14.9862 0.216322 15.1098 0.134509 15.2459 0.0795417C15.382 0.0245747 15.5277 -0.00241904 15.6745 0.000170088C15.8212 0.00275921 15.9659 0.0348781 16.1 0.0946115C16.2341 0.154345 16.3547 0.240468 16.4548 0.347845L25.198 9.09103Z" fill="#fff" />
</svg>
