<svg xmlns="http://www.w3.org/2000/svg" xmlns:xlink="http://www.w3.org/1999/xlink" width="114.809" height="35" viewBox="0 0 114.809 35"><defs><style>.a{fill:none;}.b{clip-path:url(#a);}.c{fill:#116fff;}.d{fill:#37b34a;}.e{fill:#33a249;}</style><clipPath id="a"><rect class="a" width="114.809" height="35"/></clipPath></defs><g class="b"><path class="c" d="M512.857,358.966a8.6,8.6,0,0,0-1.907-3.017,9.313,9.313,0,0,0-3.138-2.081,12.287,12.287,0,0,0-8.617,0,9.215,9.215,0,0,0-3.121,2.1,8.661,8.661,0,0,0-1.907,3.086,10.888,10.888,0,0,0-.642,3.745,9.424,9.424,0,0,0,.659,3.5,8.721,8.721,0,0,0,1.925,2.948,9.025,9.025,0,0,0,3.138,2.029,11.461,11.461,0,0,0,4.265.746,10.819,10.819,0,0,0,5.67-1.387,8.8,8.8,0,0,0,3.416-3.572l-5.583-1.6a2.44,2.44,0,0,1-1.266,1.352,4.408,4.408,0,0,1-2.029.485,3.757,3.757,0,0,1-2.115-.642,2.562,2.562,0,0,1-1.075-2.1h12.8q.069-.416.121-.954t.052-1.058a10.173,10.173,0,0,0-.642-3.589m-12.466,1.647a3.384,3.384,0,0,1,.971-2.081,3.125,3.125,0,0,1,4.092,0,3.389,3.389,0,0,1,.971,2.081Z" transform="translate(-472.258 -337.873)"/><path class="d" d="M2106.9,202.973h6.589v5.548H2106.9Zm0,7.074h6.589v18.24H2106.9Z" transform="translate(-2016.112 -194.226)"/><path class="d" d="M2304.564,381.491l8.323-9.848h-7.8v-4.508h14.668v3.884l-8.288,9.848h8.6v4.508h-15.5Z" transform="translate(-2205.255 -351.314)"/><path class="d" d="M1595.037,237.376a5.38,5.38,0,0,1-2.6,4.82,8.982,8.982,0,0,1-2.826,1.127,15.472,15.472,0,0,1-3.416.364h-12.1V219.067h14.287a4.863,4.863,0,0,1,2.323.555,5.8,5.8,0,0,1,1.769,1.439,6.6,6.6,0,0,1,1.127,2.011,6.876,6.876,0,0,1,.4,2.306,6.675,6.675,0,0,1-.884,3.312,5.555,5.555,0,0,1-2.653,2.375,6,6,0,0,1,4.577,6.311m-14.183-12.553v3.78h4.612a2.231,2.231,0,0,0,1.266-.381,1.716,1.716,0,0,0,.572-1.526,1.849,1.849,0,0,0-.485-1.439,1.664,1.664,0,0,0-1.144-.433Zm7.317,11.166a2.34,2.34,0,0,0-.485-1.508,1.53,1.53,0,0,0-1.248-.607h-5.583V238h5.34a2.011,2.011,0,0,0,1.4-.52,1.912,1.912,0,0,0,.572-1.491" transform="translate(-1506.261 -209.627)"/><path class="c" d="M16.564,217.757a18.964,18.964,0,0,0-2.148-1.109,19.654,19.654,0,0,0-2.1-.78,7.567,7.567,0,0,0-2.27-.364,3.156,3.156,0,0,0-1.438.277.969.969,0,0,0-.537.936,1.079,1.079,0,0,0,.312.8,2.953,2.953,0,0,0,.9.572,11.211,11.211,0,0,0,1.438.5q.849.243,1.923.589a25.24,25.24,0,0,1,3.067,1.143,9.528,9.528,0,0,1,2.339,1.473,5.677,5.677,0,0,1,1.49,2.062,7.469,7.469,0,0,1,.52,2.946,7.762,7.762,0,0,1-.814,3.725,6.679,6.679,0,0,1-2.148,2.408,9.066,9.066,0,0,1-3.015,1.3,14.626,14.626,0,0,1-3.379.4,19.125,19.125,0,0,1-2.772-.208,23.932,23.932,0,0,1-2.824-.589,24.663,24.663,0,0,1-2.7-.9A17.261,17.261,0,0,1,0,231.757l2.911-5.926a20.329,20.329,0,0,0,2.53,1.351,17.923,17.923,0,0,0,2.512.936,10.013,10.013,0,0,0,2.859.416,2.906,2.906,0,0,0,1.542-.295.9.9,0,0,0,.433-.78,1.115,1.115,0,0,0-.433-.884,3.977,3.977,0,0,0-1.2-.641q-.763-.277-1.75-.555t-2.1-.658a18.028,18.028,0,0,1-2.807-1.2,7.6,7.6,0,0,1-1.941-1.455,5.194,5.194,0,0,1-1.126-1.854,7.225,7.225,0,0,1-.364-2.391,8.264,8.264,0,0,1,.745-3.6,7.4,7.4,0,0,1,2.027-2.6,9.067,9.067,0,0,1,2.928-1.577,11.156,11.156,0,0,1,3.483-.537,13.224,13.224,0,0,1,2.634.26,21.154,21.154,0,0,1,2.478.658,23.823,23.823,0,0,1,2.235.866q1.04.468,1.871.884Z" transform="translate(0 -200.482)"/><path class="e" d="M1157.386,190.4l-3.161-.968,3.161.968Z" transform="translate(-1104.487 -181.267)"/><path class="e" d="M223.424,11.8l-2.668-.817a45.291,45.291,0,0,1-3.236,4.636,48.516,48.516,0,0,1-3.881,4.325,2.7,2.7,0,0,0-1.466.718,3.121,3.121,0,0,0-.836,1.422,52.9,52.9,0,0,1-6.759,5.011q-.819.513-1.665,1c-11.25,6.495-23.6,8.3-33.809,5.866,8.388,1.751,19.675-.426,30.35-6.589,12.61-7.28,20.83-18.082,21.849-27.345L221.335,0Z" transform="translate(-161.818)"/><path class="d" d="M190.989.61c-1.019,9.263-9.239,20.065-21.849,27.345-10.675,6.163-21.961,8.34-30.35,6.589h0l-.029-.007-.278-.068-.048-.012-.22-.056-.163-.042-.021-.005-.293-.078-.308-.085a48.674,48.674,0,0,0,28.747-6.709h0l.363-.212.04-.024.321-.19.034-.021q.176-.105.352-.212l0,0,.363-.223h0l.363-.228q.166-.1.33-.21l.069-.044.3-.194.027-.018.289-.19.109-.073.3-.2.25-.17.171-.117.235-.163.053-.037.328-.231.3-.213.141-.1.219-.16.051-.037.234-.173q.4-.3.8-.607l.207-.161.143-.112.124-.1.169-.134q.4-.323.8-.653c.077-.063.153-.128.23-.192q.251-.211.5-.426c.082-.071.165-.142.246-.215s.163-.143.245-.216.191-.17.286-.256l.027-.024.225-.2.123-.113.151-.14.135-.125.176-.165.129-.122.131-.125.184-.177.082-.08q.12-.116.239-.234l.027-.026c.082-.081.165-.162.246-.243l.048-.048c.078-.077.155-.155.231-.233l.061-.062q.1-.1.2-.2l.085-.087q.123-.126.243-.253t.252-.266l.04-.043c.084-.09.169-.181.252-.271s.161-.174.24-.262l.046-.051.221-.245.045-.05.145-.163.169-.193.2-.228.22-.257q.265-.312.524-.626.111-.134.22-.269l.043-.053.226-.283h0q.116-.146.23-.292l.017-.022c.077-.1.153-.2.229-.295s.156-.2.234-.307.155-.205.231-.308l.219-.3.009-.012.2-.279.047-.066q.211-.293.415-.589.107-.153.211-.307l.007-.011q.206-.3.4-.605l.024-.037q.2-.308.4-.618.1-.159.2-.319.2-.319.388-.639.1-.16.19-.321h0l-3.161-.968Z" transform="translate(-131.503 -0.584)"/><path class="d" d="M1083.635,397.911l.252-.271c-.083.09-.167.181-.252.271" transform="translate(-1036.939 -380.505)"/><path class="d" d="M1175.7,278.8q.21-.293.415-.59-.2.3-.415.59" transform="translate(-1125.041 -266.221)"/><path class="d" d="M1190.4,257.385q.2-.3.4-.605-.2.3-.4.605" transform="translate(-1139.098 -245.715)"/><path class="d" d="M1200.335,242.208q.2-.308.4-.618-.194.31-.4.618" transform="translate(-1148.61 -231.179)"/><path class="d" d="M1214.165,219.989q.2-.319.388-.639-.19.321-.388.639" transform="translate(-1161.844 -209.898)"/><path class="d" d="M1223.365,211.9h0q-.094.161-.19.321.1-.16.19-.321" transform="translate(-1170.466 -202.769)"/><path class="d" d="M1163.973.59h0l-9.748,8.137Z" transform="translate(-1104.487 -0.565)"/><path class="c" d="M660.217,363.61q.052-.537.052-1.058a10.172,10.172,0,0,0-.642-3.589,8.6,8.6,0,0,0-1.907-3.017,9.312,9.312,0,0,0-3.138-2.081,11.1,11.1,0,0,0-4.3-.78v4.683a2.81,2.81,0,0,1,1.942.761,3.389,3.389,0,0,1,.971,2.081h-6.29v3.953H660.1q.069-.416.121-.954" transform="translate(-619.029 -337.871)"/><path class="c" d="M1006.017,358.968a8.586,8.586,0,0,0-1.907-3.017,9.718,9.718,0,0,0-4.241-2.459,11.986,11.986,0,0,0-3.2-.4,11.069,11.069,0,0,0-4.317.78q-.182.077-.359.159a9.07,9.07,0,0,0-2.762,1.94,8.589,8.589,0,0,0-1.689,2.539q-.116.268-.218.548a10.891,10.891,0,0,0-.642,3.745,9.6,9.6,0,0,0,.243,2.168,9.217,9.217,0,0,0,.416,1.335,8.725,8.725,0,0,0,1.924,2.947,9.023,9.023,0,0,0,3.138,2.029,11.461,11.461,0,0,0,4.265.745,10.815,10.815,0,0,0,5.67-1.387,8.8,8.8,0,0,0,3.416-3.571l-5.583-1.6a2.439,2.439,0,0,1-1.266,1.352,4.406,4.406,0,0,1-2.028.486,3.755,3.755,0,0,1-2.115-.642,2.562,2.562,0,0,1-1.075-2.1h12.8q.069-.416.121-.954t.052-1.058a10.17,10.17,0,0,0-.642-3.589m-12.467,1.647a4.463,4.463,0,0,1,.136-.658,3.122,3.122,0,0,1,.836-1.422,2.7,2.7,0,0,1,1.466-.718,3.594,3.594,0,0,1,.58-.045,2.839,2.839,0,0,1,2.046.763,3.389,3.389,0,0,1,.971,2.081Z" transform="translate(-944.167 -337.875)"/></g></svg>