<svg width="13" height="13" viewBox="0 0 13 13" fill="none" xmlns="http://www.w3.org/2000/svg">
<path d="M6.49998 8.12467V9.74967M11.9166 6.61017V7.43405C11.9166 9.54655 11.9166 10.6033 11.2818 11.2598C10.647 11.9163 9.62594 11.9163 7.58331 11.9163H5.41665C3.37402 11.9163 2.35244 11.9163 1.71815 11.2598C1.08385 10.6033 1.08331 9.54709 1.08331 7.43405V6.61017C1.08331 5.3703 1.08331 4.75063 1.36498 4.23713C1.64556 3.72309 2.1596 3.40459 3.18715 2.76651L4.27048 2.0943C5.35652 1.41992 5.89981 1.08301 6.49998 1.08301C7.10015 1.08301 7.6429 1.41992 8.72948 2.0943L9.81281 2.76651C10.8404 3.40459 11.3544 3.72309 11.6355 4.23713" stroke="#3F47EC" stroke-linecap="round"/>
</svg>
