<svg xmlns="http://www.w3.org/2000/svg" width="900" height="600" viewBox="0 0 900 600"><path d="M0 0h900v600H0z" fill="#e30a17"/><path d="m417.504 300 135.68-44.078-83.86 115.41V228.668l83.86 115.41Zm9.25 80.21c-35.7 56.415-104.387 82.446-168.508 63.86C194.125 425.488 150 366.762 150 300s44.125-125.488 108.246-144.07c64.121-18.586 132.809 7.445 168.508 63.86-33.223-36.97-85.797-49.63-132.203-31.84C248.14 205.737 217.5 250.296 217.5 300s30.64 94.262 77.05 112.05c46.407 17.79 98.981 5.13 132.204-31.84" fill="#fff"/></svg> 